<svg width="101" height="59" viewBox="0 0 101 59" fill="none" xmlns="http://www.w3.org/2000/svg">
<g opacity="0.4" clip-path="url(#clip0_2_247)">
<path d="M100.625 55.5118C100.506 55.5195 100.366 55.4937 100.263 55.5429C97.9513 56.6875 96.6611 56.5269 95.4792 54.2325C94.3336 52.008 93.7014 49.5141 92.8885 47.1239C92.7982 46.8572 92.9479 46.4428 93.1027 46.1631C95.358 42.1233 96.6249 37.739 97.5048 33.2356C98.2506 29.4236 98.8621 25.5806 98.279 21.678C98.1216 20.624 97.9796 19.2049 96.7849 19.0702C95.8224 18.9615 94.6897 19.583 93.7788 20.1268C93.1595 20.4971 92.7079 21.2455 92.3286 21.9085C91.7532 22.9133 91.2061 23.9543 90.8165 25.042C88.2851 32.0884 88.1561 39.3213 89.4257 46.6034C89.6786 48.0614 88.8193 48.5456 88.0013 49.1671C87.1601 49.8068 86.1976 50.0036 85.248 49.3355C83.6766 48.2297 82.5515 43.7988 83.2379 41.9809C84.4094 38.881 85.5887 35.7761 86.5486 32.6089C87.2762 30.2109 87.5678 27.7015 86.9175 25.2025C86.6234 24.0708 86.0505 23.1023 84.7784 22.8615C83.4934 22.6206 82.4225 23.1463 81.78 24.1951C81.1375 25.244 80.5543 26.4015 80.2782 27.5902C79.0448 32.943 79.0396 38.3657 79.7467 43.7833C79.9428 45.2853 79.2822 46.2564 78.3636 47.1886C77.6566 47.906 76.867 47.8153 76.4954 46.9038C76.0645 45.8446 75.6052 44.6767 75.631 43.5683C75.711 40.352 76.0154 37.1408 76.258 33.9296C76.3715 32.4302 76.5831 30.9386 76.6657 29.4366C76.7199 28.4499 76.0903 28.0719 75.1613 28.1211C73.9047 28.1884 73.1744 28.8436 72.9964 30.0918C72.5706 33.0802 72.2713 36.092 71.6933 39.0494C71.283 41.1418 70.5838 43.1902 69.8251 45.1868C69.629 45.7048 68.7078 46.2564 68.1479 46.2253C67.7324 46.202 67.0925 45.2956 67.0331 44.7311C66.8654 43.1566 66.7829 41.538 66.9661 39.9713C67.2963 37.1486 67.8511 34.3518 68.2975 31.542C68.5169 30.1643 67.4796 29.2217 66.2048 29.7733C65.6268 30.0244 65.0643 30.7003 64.8501 31.3089C64.4992 32.3111 64.285 33.4169 64.2825 34.4786C64.2747 36.9207 62.791 38.4641 61.1576 40.2225C61.0673 39.298 61.0544 38.5677 60.9176 37.8581C60.5538 35.9599 60.2958 34.0203 59.7023 32.1946C59.0933 30.3197 57.8109 29.6541 55.9582 30.2239C54.5983 30.6408 53.1791 31.2675 52.1211 32.1894C48.8286 35.0613 47.1952 38.8448 46.7204 43.1695C46.674 43.5839 46.2998 43.9594 46.0779 44.353C45.5747 44.0578 44.7903 43.8713 44.6277 43.444C44.3155 42.6309 44.1865 41.6597 44.2897 40.7922C44.5322 38.7878 44.9219 36.799 45.327 34.8205C45.4792 34.0747 45.567 33.4272 44.7851 33.0466C43.9491 32.64 43.2679 32.943 42.7982 33.6862C42.5737 34.0436 42.4163 34.4579 42.3028 34.8697C42.0138 35.9055 41.8641 36.9932 41.4797 37.9928C40.6178 40.2303 39.7482 42.4755 38.6593 44.6042C38.3574 45.192 37.2452 45.7281 36.5614 45.6659C35.5241 45.5701 35.3796 44.4592 35.3306 43.5217C35.168 40.5125 36.1331 37.8219 37.7665 35.3669C39.4515 32.8342 41.7274 31.2105 44.8832 31.0914C45.1825 31.081 45.4741 30.9153 45.7708 30.8221C45.7863 30.7133 45.8018 30.6019 45.8173 30.4932C45.3476 30.2627 44.8987 29.9493 44.4032 29.8121C42.1067 29.175 40.0192 29.7707 38.2413 31.2312C34.203 34.546 32.1284 38.9147 31.6742 44.0992C31.6303 44.5938 31.6561 45.2723 31.3594 45.5339C30.2731 46.492 29.1429 47.4606 27.8785 48.1416C26.4825 48.8926 25.231 48.3643 24.6349 46.8572C24.2143 45.7954 24.1137 44.6094 23.8634 43.4777C23.6699 42.605 23.9769 42.1 24.7872 41.6338C27.334 40.1707 29.7338 38.4952 31.4936 36.0687C32.678 34.4346 33.3128 32.6452 32.9463 30.6019C32.4096 27.6083 29.597 26.1244 27.0269 27.7274C25.6645 28.5768 24.4646 29.9079 23.5821 31.2752C21.7036 34.1834 20.9321 37.5163 20.5708 40.9476C20.5244 41.3826 20.4367 41.9809 20.1451 42.1958C19.1568 42.9235 18.0679 43.5139 17.1544 44.0733C14.9663 41.942 12.84 39.9946 10.8557 37.9047C9.02622 35.9781 7.17609 34.0255 5.65367 31.8579C4.01771 29.5246 4.24478 26.9454 5.79817 24.5655C7.3593 22.17 10.2983 21.2041 13.0723 22.082C15.3998 22.82 16.8732 25.0135 16.837 27.6575C16.8112 29.4159 15.8023 30.7133 14.8759 32.0677C14.6566 32.3862 14.6256 32.8368 14.5069 33.2278C14.9456 33.3055 15.3791 33.4143 15.8204 33.448C16.0191 33.4635 16.2358 33.3521 16.4293 33.2615C18.8084 32.1376 20.4083 30.3896 20.6457 27.673C20.8753 25.0497 19.7271 23.0583 17.526 21.7169C14.4553 19.8445 11.1318 19.57 7.70249 20.4453C1.23864 22.0949 -1.22046 27.8647 2.30175 33.5386C3.69516 35.7812 5.57626 37.739 7.37736 39.6942C9.43134 41.9265 11.6427 44.0137 13.836 46.2123C12.102 47.5253 10.4893 48.6078 9.0417 49.8819C7.50122 51.2414 5.95041 52.6528 4.70667 54.2739C3.03716 56.4466 3.78289 58.1998 6.48971 58.5753C10.8918 59.1865 14.8527 57.9745 18.1891 55.0223C19.6522 53.7275 20.3722 51.9743 19.8948 49.9984C19.5464 48.556 18.9375 47.1783 18.4059 45.6556C18.9581 45.2956 19.6238 44.8605 20.3309 44.3996C20.6895 45.7928 20.9192 47.1084 21.3682 48.3436C22.2352 50.7235 24.0285 52.1193 26.2167 51.8086C27.4553 51.6325 28.6758 50.8918 29.7622 50.1849C30.704 49.5737 31.4446 48.6544 32.2729 47.8723C33.8469 49.6618 35.568 50.2159 37.3949 49.25C38.3884 48.7243 39.2966 47.9137 40.0372 47.054C40.881 46.0725 41.4925 44.8942 42.0731 44.0034C42.5918 44.8864 42.935 46.2253 43.7504 46.6474C44.5838 47.0799 45.8792 46.6163 47.1487 46.5361C48.2041 48.1416 49.2389 48.6777 51.1354 47.9629C52.2579 47.5408 53.4758 46.8675 54.1777 45.943C55.3853 44.3556 56.2239 42.4858 57.2148 40.7326C57.3593 40.4763 57.4728 40.2044 57.7438 39.6502C57.8496 40.6058 57.8883 41.2091 57.9915 41.8022C58.2211 43.1203 57.9089 44.1769 56.9258 45.1765C55.8162 46.3056 54.7738 47.5616 53.9713 48.9211C52.9572 50.6458 52.0128 52.4664 51.4115 54.3646C50.8155 56.255 51.4915 57.7311 52.7404 58.4717C54.0848 59.2694 56.2239 59.2072 57.4238 57.9435C58.5153 56.7911 59.4675 55.3797 60.061 53.9088C61.2557 50.9436 61.4182 47.7428 61.1473 44.6016C60.9564 42.3771 62.4581 41.5018 63.5341 40.2846C63.9418 42.4729 64.1225 44.6482 64.7805 46.6655C65.601 49.1749 68.2614 49.7887 70.3051 48.0924C71.0147 47.5046 71.5488 46.6811 72.0752 45.9042C72.4339 45.3759 72.6377 44.744 72.8983 44.1924C73.4376 45.7281 73.8092 47.3 74.5188 48.6984C75.6206 50.8659 77.4992 51.0653 79.259 49.3743C79.708 48.9418 80.1131 48.4628 80.5672 47.9733C81.46 50.0813 82.0948 52.3162 84.4765 52.9506C86.9821 53.6162 88.4555 51.6584 90.1662 50.1771C90.3391 50.6924 90.4217 51.1171 90.6152 51.4797C91.6242 53.3624 92.486 55.3616 93.7426 57.063C94.9967 58.7618 97.2158 59.0881 98.9937 58.2905C100.284 57.7078 100.908 56.6616 100.625 55.5118Z" fill="white"/>
<path d="M23.3908 12.8292C23.4527 12.9845 23.5147 13.1425 23.5766 13.2979C24.5262 13.0596 25.5119 12.9146 26.4202 12.565C29.6534 11.3116 32.9769 10.5425 36.4424 10.3224C39.6653 10.1178 44.3203 12.7541 45.9098 15.8202C44.2248 17.0684 42.4211 17.7624 40.2665 17.2652C39.833 17.1642 39.335 17.3403 38.8679 17.3869C39.0898 17.8116 39.2137 18.3503 39.5491 18.6429C41.536 20.3754 43.8713 20.8364 46.4155 20.3495C49.5739 19.7461 52.4304 18.371 55.2559 16.8871C56.2081 16.3873 57.3279 16.2035 58.3704 15.8772C58.4169 16.0196 58.4633 16.162 58.5098 16.3019C58.3291 16.3873 58.1098 16.4339 57.973 16.566C57.7305 16.7991 57.5395 17.0865 57.3254 17.3507C57.6531 17.4931 57.9963 17.7857 58.3085 17.7547C61.3404 17.4543 63.7866 18.5264 66.0083 20.5852C68.3926 22.7941 71.1407 24.5033 74.3791 25.2206C74.7352 25.3009 75.1558 25.1015 75.5454 25.029C75.4319 24.6846 75.4009 24.2676 75.1868 24.0035C73.236 21.5977 71.2594 19.2126 69.2777 16.8302C68.3126 15.6674 67.0173 15.1288 65.5516 15.0329C63.2809 14.8827 61.005 14.8232 58.7368 14.6445C58.1408 14.5979 57.5628 14.2664 56.9796 14.0541C56.0481 13.7148 55.114 13.0674 54.1902 13.0829C52.1775 13.1166 50.4822 12.5106 48.9314 11.322C48.0773 10.6668 47.2232 10.0142 46.3949 9.32794C44.5086 7.7612 42.4598 6.89367 39.9801 7.72754C39.7814 7.79487 39.5543 7.76897 39.3401 7.80264C34.2284 8.57436 29.1863 9.59727 24.552 12.0471C24.1417 12.2542 23.7779 12.5624 23.3908 12.8292Z" fill="white"/>
<path d="M50.668 0.00783182C47.0607 -0.113882 43.1798 1.28971 39.7582 4.00625C39.2292 4.42578 38.7518 4.95147 38.3725 5.51084C38.2177 5.74132 38.3906 6.19192 38.4138 6.54152C38.7183 6.47937 39.0821 6.50267 39.3144 6.33694C40.0859 5.79311 40.7955 5.16124 41.5516 4.59928C48.1909 -0.334002 59.6839 0.126955 64.9891 9.26583C65.7323 10.5451 66.0806 12.0523 66.6586 13.4326C66.7851 13.7356 67.1205 13.9479 67.3579 14.2017C67.5411 13.8728 67.8972 13.531 67.8766 13.2125C67.825 12.4485 67.665 11.6768 67.4327 10.9439C65.3194 4.33514 59.0078 0.0259594 50.668 0.00783182Z" fill="white"/>
<path d="M33.0598 17.3973C33.2533 20.8855 34.4944 23.9517 35.9833 26.9272C36.1949 27.3493 37.0826 27.8388 37.4283 27.7041C38.3727 27.3364 37.7199 26.619 37.4309 26.1192C36.1614 23.9128 35.4131 21.533 35.3589 19.0106C35.315 16.9674 35.6066 14.9164 35.6866 12.868C35.7021 12.4536 35.4466 12.0289 35.315 11.6094C34.9976 11.8891 34.497 12.1144 34.3912 12.4614C33.8881 14.0877 33.4933 15.7503 33.0598 17.3973Z" fill="white"/>
<path d="M67.9725 23.0039C67.539 22.8175 67.2113 22.543 66.9403 22.5922C66.592 22.6543 66.1688 22.9003 65.9882 23.1981C65.2579 24.4023 64.587 25.6479 63.9394 26.9013C63.7665 27.2328 63.751 27.6446 63.6633 28.0201C64.1329 27.9968 64.8683 28.1521 65.0257 27.9191C65.9934 26.4792 66.8294 24.9513 67.9725 23.0039Z" fill="white"/>
<path d="M100.935 55.4536C101.218 56.6008 100.594 57.6496 99.2986 58.2297C97.5233 59.0273 95.3016 58.701 94.0475 57.0022C92.7909 55.3008 91.929 53.299 90.9201 51.4189C90.7266 51.0563 90.644 50.6342 90.4711 50.1163C88.7603 51.5976 87.2869 53.5579 84.7814 52.8898C82.3971 52.2553 81.7649 50.0205 80.8721 47.9125C80.418 48.4019 80.0129 48.881 79.5639 49.3135C77.8066 51.0071 75.9255 50.8051 74.8237 48.6376C74.1141 47.2392 73.7425 45.6673 73.2032 44.1316C72.9452 44.6832 72.7388 45.3151 72.3801 45.8434C71.8537 46.6203 71.317 47.4438 70.61 48.0316C68.5663 49.7278 65.9059 49.1141 65.0854 46.6047C64.4248 44.5874 64.2467 42.4095 63.839 40.2238C62.763 41.441 61.2587 42.3163 61.4522 44.5408C61.7231 47.682 61.558 50.8828 60.3659 53.848C59.7749 55.3163 58.8202 56.7303 57.7287 57.8827C56.5288 59.149 54.3897 59.2085 53.0453 58.4109C51.7964 57.6703 51.1204 56.1942 51.7164 54.3038C52.3151 52.4055 53.2595 50.585 54.2762 48.8603C55.0787 47.5007 56.1211 46.2448 57.2307 45.1157C58.2138 44.1161 58.526 43.0595 58.2964 41.7414C58.1932 41.1509 58.1571 40.5475 58.0487 39.5894C57.7803 40.1435 57.6642 40.418 57.5197 40.6718C56.5314 42.425 55.6902 44.2948 54.4826 45.8822C53.7807 46.8041 52.5628 47.48 51.4403 47.9021C49.5437 48.6169 48.5116 48.0808 47.4536 46.4752C46.1841 46.5581 44.8887 47.0191 44.0553 46.5866C43.2399 46.1645 42.8967 44.8256 42.378 43.9426C41.7975 44.8334 41.1859 46.0143 40.3421 46.9932C39.6016 47.8529 38.6958 48.6661 37.6998 49.1892C35.8729 50.1551 34.1518 49.6009 32.5778 47.8115C31.752 48.591 31.0089 49.5129 30.0671 50.1241C28.9807 50.831 27.7602 51.5717 26.5216 51.7478C24.336 52.0585 22.5427 50.6627 21.6731 48.2828C21.2215 47.0476 20.9944 45.732 20.6358 44.3388C19.9287 44.7997 19.263 45.2348 18.7108 45.5948C19.2424 47.1149 19.8513 48.4952 20.1997 49.9376C20.6771 51.9135 19.9571 53.6667 18.4941 54.9615C15.1576 57.9137 11.1967 59.1257 6.79462 58.5145C4.0878 58.139 3.34207 56.3858 5.01158 54.2131C6.2579 52.592 7.80613 51.1806 9.34661 49.8211C10.7916 48.547 12.4069 47.4645 14.141 46.1515C11.9476 43.9529 9.73625 41.8657 7.68227 39.6334C5.88117 37.6756 3.99749 35.7178 2.60667 33.4778C-0.910389 27.8064 1.54871 22.0367 8.01256 20.3845C11.4419 19.5092 14.7654 19.7837 17.8361 21.656C20.0371 22.9975 21.1854 24.9889 20.9557 27.6122C20.7183 30.3288 19.1185 32.0794 16.7394 33.2007C16.5485 33.2913 16.3291 33.4027 16.1304 33.3871C15.6892 33.3535 15.2531 33.2447 14.817 33.167C14.9357 32.776 14.9667 32.328 15.186 32.0069C16.1149 30.6551 17.1213 29.3551 17.1471 27.5967C17.1832 24.9552 15.7098 22.7618 13.3746 22.0238C10.6033 21.1459 7.66421 22.1144 6.1005 24.5072C4.54711 26.8871 4.32004 29.4664 5.956 31.7997C7.47584 33.9672 9.32597 35.9198 11.158 37.8465C13.1398 39.9338 15.2686 41.8838 17.4567 44.0151C18.3728 43.4557 19.4591 42.8653 20.4474 42.1376C20.739 41.9226 20.8267 41.327 20.8732 40.8894C21.2344 37.4607 22.0085 34.1278 23.8845 31.217C24.767 29.8497 25.9668 28.5186 27.3293 27.6692C29.8993 26.0662 32.7145 27.5475 33.2487 30.5437C33.6151 32.5869 32.9803 34.3764 31.7959 36.0105C30.0335 38.4396 27.6338 40.1151 25.0895 41.5756C24.2793 42.0418 23.9748 42.5467 24.1657 43.4195C24.416 44.5485 24.5167 45.7372 24.9373 46.7989C25.5333 48.3061 26.7874 48.8318 28.1808 48.0834C29.4452 47.4023 30.5754 46.4338 31.6617 45.4756C31.9585 45.2141 31.9327 44.5356 31.9765 44.041C32.4307 38.8565 34.5053 34.4877 38.5436 31.173C40.3215 29.7124 42.409 29.1142 44.7055 29.7539C45.201 29.8911 45.65 30.2019 46.1196 30.4349C46.1041 30.5437 46.0886 30.6551 46.0731 30.7638C45.7764 30.8571 45.4848 31.0202 45.1855 31.0332C42.0297 31.1549 39.7538 32.776 38.0688 35.3087C36.4354 37.7637 35.4704 40.4543 35.6329 43.4635C35.682 44.3983 35.8265 45.5119 36.8638 45.6077C37.5476 45.6699 38.6623 45.1338 38.9616 44.5459C40.0505 42.4173 40.9201 40.172 41.782 37.9346C42.1664 36.9376 42.3161 35.8499 42.6051 34.8115C42.7186 34.4023 42.876 33.9854 43.1005 33.628C43.5702 32.8848 44.2514 32.5792 45.0874 32.9883C45.8719 33.369 45.7816 34.019 45.6293 34.7623C45.2242 36.7407 44.832 38.7296 44.592 40.734C44.4862 41.6015 44.6178 42.5726 44.93 43.3858C45.0926 43.8131 45.877 43.9995 46.3802 44.2948C46.6021 43.9011 46.9789 43.5256 47.0227 43.1113C47.4975 38.784 49.1309 35.0005 52.4235 32.1312C53.4814 31.2092 54.9006 30.5826 56.2605 30.1656C58.1158 29.5959 59.3956 30.2588 60.0046 32.1363C60.5981 33.962 60.8561 35.9017 61.22 37.7999C61.3541 38.5069 61.3696 39.2372 61.4599 40.1643C63.0959 38.4059 64.5796 36.865 64.5848 34.4204C64.5874 33.3587 64.8015 32.2529 65.1525 31.2507C65.3666 30.6421 65.9292 29.9662 66.5072 29.715C67.7819 29.1634 68.8192 30.1061 68.5998 31.4838C68.1534 34.2935 67.5987 37.0903 67.2684 39.9131C67.0852 41.4798 67.1677 43.0983 67.3355 44.6728C67.3948 45.2374 68.0347 46.1464 68.4502 46.1671C69.0075 46.1981 69.9287 45.6466 70.1274 45.1286C70.8861 43.132 71.5853 41.0836 71.9956 38.9911C72.5736 36.0338 72.8729 33.0194 73.2987 30.0335C73.4768 28.7853 74.207 28.1302 75.4636 28.0628C76.3926 28.0136 77.0222 28.3917 76.968 29.3784C76.888 30.8778 76.6738 32.372 76.5603 33.8714C76.3203 37.0826 76.0133 40.2937 75.9333 43.5101C75.9049 44.6185 76.3642 45.7864 76.7977 46.8456C77.1693 47.7571 77.9589 47.8478 78.6659 47.1304C79.5819 46.2007 80.2451 45.227 80.049 43.725C79.342 38.3075 79.3471 32.8848 80.5805 27.5319C80.8541 26.3433 81.4398 25.1857 82.0823 24.1369C82.7248 23.0881 83.7957 22.5598 85.0807 22.8032C86.3528 23.0441 86.9231 24.0126 87.2199 25.1443C87.8727 27.6433 87.5785 30.1553 86.8509 32.5507C85.891 35.7178 84.7117 38.8254 83.5402 41.9226C82.8539 43.738 83.9789 48.1689 85.5503 49.2772C86.4999 49.9454 87.4624 49.7486 88.3036 49.1089C89.1216 48.4874 89.9809 48.0031 89.728 46.5452C88.4584 39.2605 88.5874 32.0302 91.1188 24.9837C91.5084 23.8961 92.0555 22.855 92.6309 21.8503C93.0102 21.1873 93.4618 20.4389 94.0811 20.0686C94.992 19.5247 96.1273 18.9058 97.0872 19.012C98.2819 19.1467 98.4239 20.5658 98.5813 21.6198C99.1644 25.5224 98.5529 29.3654 97.8071 33.1774C96.9272 37.6782 95.6628 42.0651 93.405 46.1049C93.2502 46.3846 93.1005 46.7964 93.1908 47.0657C94.0011 49.4559 94.6333 51.9498 95.7815 54.1743C96.9659 56.4687 98.2535 56.6293 100.566 55.4846C100.674 55.4354 100.816 55.4639 100.935 55.4536ZM92.8219 43.4272C95.6654 36.0907 97.3091 28.8656 96.8601 20.975C93.725 23.0674 91.2014 37.6963 92.8219 43.4272ZM57.4913 34.366C57.3649 34.0087 57.3029 33.0712 56.8798 32.8563C56.4488 32.6387 55.6386 33.0842 55.0348 33.3379C54.6968 33.4804 54.4026 33.7885 54.1523 34.0786C51.8171 36.7822 50.6404 39.97 50.4391 43.5023C50.4056 44.072 50.821 44.9784 51.2674 45.1726C51.6906 45.3539 52.6196 44.9732 52.9937 44.5459C55.4657 41.7258 56.9417 38.424 57.4913 34.366ZM15.2247 48.0083C14.4712 48.5729 13.7358 49.0235 13.1165 49.6009C11.7412 50.8802 10.371 52.1725 9.11696 53.5657C8.75571 53.9671 8.48219 54.9848 8.71442 55.2645C9.06535 55.6866 9.95817 55.9818 10.5052 55.8498C11.8083 55.5364 13.1862 55.1506 14.2803 54.4177C16.5923 52.8665 16.8813 50.5565 15.2247 48.0083ZM24.2715 39.939C26.8467 38.1909 29.0865 36.6294 30.3044 34.0242C31.0218 32.4859 30.867 30.9788 30.0077 30.4841C29.0943 29.9584 27.8066 30.5308 26.8209 31.9887C25.2701 34.2806 24.6792 36.8935 24.2715 39.939ZM82.7223 38.3722C82.8797 38.4033 83.0396 38.437 83.197 38.468C83.8808 35.8758 84.6498 33.2991 85.2175 30.681C85.5245 29.2696 85.5761 27.7806 85.5581 26.3303C85.5529 25.8098 85.0059 25.2945 84.7066 24.7766C84.3324 25.1987 83.7621 25.5612 83.6125 26.0533C82.3739 30.0931 82.6423 34.2417 82.7223 38.3722ZM58.4073 45.9677C56.116 48.389 54.6916 50.8466 54.0413 53.7159C53.8685 54.485 53.6749 55.5986 54.689 55.785C55.2773 55.8938 56.0308 55.1713 56.6862 54.7802C56.8488 54.6844 56.9391 54.4358 57.0268 54.2442C58.1803 51.7296 58.3867 49.0571 58.4073 45.9677Z" fill="black"/>
<path d="M23.3908 12.8292C23.7779 12.5624 24.1417 12.2568 24.552 12.0393C29.1838 9.5895 34.2258 8.56918 39.3401 7.79487C39.5517 7.7638 39.7788 7.7871 39.9801 7.71977C42.4598 6.8885 44.5086 7.75344 46.3949 9.32018C47.2232 10.0064 48.0773 10.659 48.9314 11.3142C50.4822 12.5054 52.1775 13.1088 54.1902 13.0752C55.114 13.0596 56.0481 13.707 56.9796 14.0463C57.5628 14.2586 58.1382 14.5901 58.7368 14.6367C61.005 14.8154 63.2809 14.875 65.5516 15.0252C67.0173 15.121 68.3126 15.6596 69.2777 16.8224C71.2568 19.2049 73.236 21.5899 75.1868 23.9957C75.4009 24.2599 75.4293 24.6742 75.5454 25.0212C75.1558 25.0912 74.7378 25.2906 74.3791 25.2129C71.1407 24.4955 68.3926 22.789 66.0083 20.5774C63.7866 18.5186 61.3404 17.4491 58.3085 17.7469C57.9963 17.778 57.6531 17.4853 57.3254 17.3429C57.5395 17.0788 57.7305 16.7939 57.973 16.5583C58.1098 16.4262 58.3291 16.3796 58.5098 16.2941C58.4633 16.1517 58.4169 16.0092 58.3704 15.8694C57.3279 16.1983 56.2081 16.3796 55.2559 16.8794C52.4304 18.3632 49.5765 19.7383 46.4155 20.3417C43.8713 20.8286 41.536 20.3676 39.5491 18.6352C39.2137 18.3425 39.0898 17.8039 38.8679 17.3792C39.335 17.3326 39.833 17.1565 40.2665 17.2575C42.4211 17.7547 44.2222 17.0632 45.9098 15.8124C44.3203 12.7489 39.6653 10.1126 36.4424 10.3146C32.9795 10.5347 29.6534 11.3039 26.4202 12.5572C25.5145 12.9094 24.5262 13.0519 23.5766 13.2901C23.5147 13.1399 23.4527 12.9845 23.3908 12.8292Z" fill="black"/>
<path d="M50.668 0.00783148C59.0078 0.025959 65.3194 4.33514 67.4328 10.9491C67.6676 11.6794 67.825 12.4537 67.8766 13.2176C67.8972 13.5336 67.5437 13.8754 67.3579 14.2069C67.1179 13.9531 66.7851 13.7382 66.6586 13.4378C66.0806 12.0575 65.7323 10.5503 64.9891 9.27101C59.6839 0.129545 48.1909 -0.331413 41.5516 4.60446C40.7929 5.169 40.0833 5.79829 39.3144 6.34211C39.0821 6.50526 38.7183 6.48196 38.4138 6.5467C38.3906 6.19709 38.2177 5.74391 38.3725 5.51602C38.7518 4.95665 39.2266 4.43095 39.7582 4.01143C43.1798 1.28971 47.0607 -0.113882 50.668 0.00783148Z" fill="black"/>
<path d="M33.0598 17.3973C33.4933 15.7477 33.8881 14.0877 34.3912 12.4589C34.497 12.1118 34.9976 11.8865 35.315 11.6069C35.4466 12.0264 35.7021 12.4511 35.6866 12.8654C35.604 14.9138 35.315 16.9648 35.3589 19.0081C35.4131 21.5304 36.1614 23.9103 37.4309 26.1167C37.7199 26.6165 38.3727 27.3338 37.4283 27.7015C37.0826 27.8362 36.1949 27.3468 35.9833 26.9246C34.4944 23.9543 33.2533 20.8856 33.0598 17.3973Z" fill="black"/>
<path d="M67.9725 23.0039C66.8294 24.9513 65.9934 26.4792 65.0257 27.919C64.8683 28.1547 64.1303 27.9967 63.6633 28.02C63.751 27.6445 63.7665 27.2328 63.9394 26.9013C64.587 25.6479 65.2579 24.4049 65.9882 23.1981C66.1688 22.9003 66.592 22.6543 66.9403 22.5921C67.2113 22.5403 67.539 22.8148 67.9725 23.0039Z" fill="black"/>
<path d="M92.5117 43.4855C90.8912 37.7546 93.4148 23.1256 96.55 21.0332C96.9989 28.9239 95.3553 36.149 92.5117 43.4855Z" fill="white"/>
<path d="M57.1816 34.4243C56.6319 38.4848 55.156 41.7866 52.6865 44.6042C52.3124 45.0315 51.3809 45.4147 50.9603 45.2309C50.5139 45.0366 50.0984 44.1303 50.132 43.5605C50.3332 40.0283 51.5099 36.8378 53.8451 34.1368C54.0954 33.8468 54.387 33.5386 54.7276 33.3962C55.3314 33.1424 56.1417 32.697 56.5726 32.9145C56.9958 33.1269 57.0551 34.0669 57.1816 34.4243Z" fill="white"/>
<path d="M14.9148 48.0665C16.574 50.6147 16.285 52.9247 13.9704 54.4759C12.8763 55.2114 11.4984 55.5946 10.1953 55.908C9.64822 56.0401 8.75283 55.7448 8.40448 55.3227C8.17224 55.043 8.44576 54.0253 8.80702 53.6239C10.0637 52.2307 11.4313 50.9384 12.8066 49.6591C13.4259 49.0817 14.1587 48.6311 14.9148 48.0665Z" fill="white"/>
<path d="M23.9611 39.9972C24.3688 36.9518 24.9597 34.3388 26.5105 32.047C27.4962 30.5916 28.7838 30.0193 29.6973 30.5424C30.5566 31.037 30.714 32.5442 29.994 34.0824C28.7761 36.6876 26.5363 38.2466 23.9611 39.9972Z" fill="white"/>
<path d="M82.4119 38.4305C82.3319 34.3 82.0636 30.1513 83.2996 26.1089C83.4492 25.6169 84.0195 25.2543 84.3936 24.8322C84.693 25.3501 85.24 25.8655 85.2452 26.386C85.2632 27.8362 85.2116 29.3252 84.9045 30.7366C84.3369 33.3547 83.5679 35.9314 82.8841 38.5237C82.7267 38.4952 82.5693 38.4615 82.4119 38.4305Z" fill="white"/>
<path d="M58.0968 46.0259C58.0762 49.1154 57.8698 51.7879 56.7163 54.3024C56.6286 54.4967 56.5383 54.7427 56.3757 54.8385C55.7203 55.2295 54.9668 55.9521 54.3785 55.8433C53.3644 55.6542 53.5579 54.5407 53.7308 53.7742C54.3811 50.9048 55.8054 48.4472 58.0968 46.0259Z" fill="white"/>
</g>
<defs>
<clipPath id="clip0_2_247">
<rect width="100" height="59" fill="white" transform="translate(0.691589 4.57764e-05)"/>
</clipPath>
</defs>
</svg>
