<svg width="105" height="52" viewBox="0 0 105 52" fill="none" xmlns="http://www.w3.org/2000/svg">
<g opacity="0.4" clip-path="url(#clip0_2_208)">
<path d="M107 56C70.6618 56 34.3285 56 -2 56C-2 35.9948 -2 15.9944 -2 -4.00005C34.3382 -4.00005 70.6715 -4.00005 107 -4.00005C107 16.0052 107 36.0056 107 56ZM38.0696 11.3756C37.5767 11.504 37.1383 11.6876 36.6889 11.7212C35.1835 11.8352 33.6745 11.9252 32.1654 11.9696C28.107 12.0884 24.791 14.4632 23.4515 18.2564C22.8799 19.874 22.6231 21.5492 22.5977 23.258C22.5734 24.8372 22.6025 26.4188 22.5819 27.998C22.565 29.354 21.636 30.3344 20.408 30.338C19.0733 30.3416 18.1323 29.396 18.1008 28.0028C18.0863 27.3632 18.0984 26.7224 18.0996 26.0828C18.1032 20.6624 18.1081 15.242 18.1105 9.82155C18.1105 9.45315 18.0657 9.13155 18.624 9.07755C20.4092 8.90475 22.1992 8.73555 23.9674 8.44995C25.6715 8.17515 27.4021 7.90515 29.0323 7.36995C31.6035 6.52515 32.794 3.90675 32.4355 1.61595C31.4909 1.80315 30.5474 1.99515 29.6027 2.17755C22.6594 3.51555 15.6495 4.25355 8.57663 4.42395C7.18507 4.45755 5.78381 4.41195 4.40193 4.54875C2.42903 4.74315 0.881233 5.69955 0.252667 7.63275C-0.3214 9.40155 -0.0646445 11.1128 1.42018 12.4124C2.9813 13.7804 4.82582 13.9748 6.78177 13.4864C6.71273 13.4276 6.63522 13.4144 6.55892 13.3928C5.38051 13.0604 4.84641 12.3308 4.99417 11.2532C5.12618 10.2884 5.79834 9.78195 6.98766 9.74355C8.74256 9.68715 10.4975 9.62595 12.2524 9.57195C12.4437 9.56595 12.6375 9.58755 12.8422 9.59715C12.8591 9.77715 12.8809 9.89355 12.8809 10.0112C12.8809 16.8116 12.8906 23.612 12.8712 30.4124C12.864 33.0476 11.9871 35.348 9.99242 37.166C9.71266 37.4204 9.42441 37.6664 9.11679 37.9376C9.39656 38.264 9.65573 38.5664 9.90886 38.8604C9.97426 38.8424 10.0227 38.8424 10.0506 38.8196C12.6605 36.6488 15.7561 35.6816 19.0612 35.198C20.3135 35.0144 21.5755 34.82 22.7914 34.4828C24.0994 34.1192 25.141 33.2744 26.0142 32.2208C27.6686 33.212 29.4223 33.6308 31.3116 33.3656C33.19 33.1016 34.7814 32.2664 36.0604 30.8792C37.6033 31.9208 39.2371 32.384 41.038 32.2304C42.8426 32.0768 44.3432 31.2848 45.6221 30.0368C46.7048 30.8336 47.8057 31.448 49.1331 31.6472C50.4593 31.8464 51.7116 31.5548 53.0135 31.2176C53.0995 33.356 52.5836 35.2244 51.2925 36.8432C50.0693 38.3792 48.5348 39.362 46.4699 39.236C45.9418 39.2036 45.4211 39.062 44.8131 38.9564C45.0541 39.2468 45.2382 39.506 45.4574 39.7292C47.3964 41.6996 50.6373 42.182 53.3078 40.8944C55.7797 39.7028 57.0853 37.5932 57.7962 35.0864C58.1196 33.944 58.2237 32.7404 58.4381 31.5104C60.8058 32.2004 63.0282 31.784 64.9575 30.1652C68.1403 32.9804 71.4418 33.2636 74.9165 30.7976C75.0291 30.9116 75.126 31.0124 75.2241 31.1096C75.3391 31.2224 75.4518 31.3364 75.5717 31.4444C77.5567 33.2264 79.8602 33.7436 82.4253 33.0716C84.5908 32.504 86.0611 31.07 87.0942 29.1644C87.9686 27.554 88.3634 25.8056 88.4567 23.9888C88.5039 23.0708 88.5003 22.1504 88.5524 21.2324C88.5863 20.63 88.9121 20.1788 89.4437 19.8908C90.7493 19.184 92.1518 20.084 92.1578 21.662C92.1687 24.5024 92.1566 27.3428 92.1348 30.182C92.1227 31.7468 91.4094 32.4788 89.8313 32.6072C89.7344 32.6156 89.6375 32.6324 89.514 32.6492C89.5007 32.8016 89.4825 32.9372 89.4789 33.074C89.4728 33.29 89.4776 33.5072 89.4776 33.7772C93.0359 34.16 96.444 34.9604 99.6704 36.4136C100.18 35.3264 100.18 35.3264 99.3385 34.6244C98.085 33.578 97.4819 32.198 97.4577 30.6188C97.4056 27.1196 97.3898 23.618 97.4431 20.1188C97.4758 18.02 99.7394 16.7468 101.641 17.6768C101.994 17.8496 102.323 18.0716 102.685 18.284C103.474 16.9892 104.253 15.7124 105.022 14.45C103.054 12.3704 100.217 11.8496 97.6841 13.0916C97.3862 13.238 97.2421 13.1816 97.018 12.9728C95.8372 11.8712 94.1731 11.7692 92.8712 12.7424C92.4776 13.0376 92.1736 13.4528 91.8369 13.8212C91.5135 14.1764 91.235 14.5796 90.8777 14.894C89.9463 15.716 88.7716 15.8012 87.7688 15.0644C86.8798 14.4104 86.0781 13.6412 85.2097 12.9596C82.7959 11.0636 80.1618 10.5224 77.3023 11.8628C75.2301 12.8336 74.019 14.5712 73.233 16.64C72.5984 18.3116 72.4361 20.0576 72.4204 21.824C72.4082 23.1236 72.4506 24.4256 72.3913 25.7228C72.3295 27.0632 71.1196 27.854 69.8225 27.47C68.9566 27.2144 68.4612 26.4632 68.4612 25.376C68.4588 17.2748 68.46 9.17475 68.46 1.07355C68.46 0.839554 68.46 0.605554 68.46 0.309154C66.1032 0.309154 63.8142 0.309154 61.5082 0.309154C61.5082 0.708754 61.5082 1.09515 61.5082 1.47675C62.8417 1.63875 63.2002 2.04435 63.2014 3.36075C63.2026 8.32155 63.2014 13.2812 63.2014 18.242C63.2014 20.2616 63.1941 22.2824 63.205 24.302C63.2086 24.9668 63.0633 25.5704 62.614 26.078C61.9406 26.84 60.853 27.1256 59.9181 26.792C58.9443 26.444 58.3 25.5548 58.2976 24.4856C58.2891 20.4452 58.294 16.4048 58.294 12.3644C58.294 12.1304 58.294 11.8964 58.294 11.6552C56.5051 11.6552 54.7866 11.6552 53.0244 11.6552C53.0244 11.9444 53.0244 12.182 53.0244 12.4196C53.0244 16.3004 53.0244 20.18 53.0232 24.0608C53.0232 24.32 53.0268 24.5816 53.0002 24.8396C52.896 25.8272 52.3062 26.4284 51.3943 26.7404C50.5852 27.0176 49.6854 26.7392 49.0956 26.0768C48.6366 25.5632 48.5227 24.9464 48.5239 24.2924C48.53 22.052 48.5433 19.8116 48.5409 17.5724C48.5397 16.3928 48.5893 15.2072 48.4803 14.0372C48.318 12.302 46.5692 10.9868 44.7743 11.1428C42.9746 11.2988 41.6024 12.818 41.669 14.5784C42.7554 14.2028 43.2834 14.4692 43.2871 15.4364C43.298 18.5372 43.2968 21.6368 43.2859 24.7376C43.2834 25.6052 42.9407 26.342 42.2237 26.858C41.365 27.4748 40.4228 27.5564 39.483 27.0752C38.5407 26.5928 38.0793 25.7744 38.0769 24.7292C38.0672 21.2684 38.0696 17.8088 38.0684 14.348C38.0696 13.37 38.0696 12.3932 38.0696 11.3756ZM11.9254 51.1352C11.9508 51.1988 11.975 51.2624 12.0004 51.326C12.6908 50.8484 13.3545 51.128 14.023 51.3092C14.4106 51.4148 14.8066 51.4916 15.1905 51.608C15.784 51.7868 16.0795 51.3692 16.3968 51.1652C15.5066 50.9552 14.6225 50.7452 13.7372 50.5364C15.9632 49.7408 16.7359 48.7736 16.4937 46.994C16.3084 45.6296 15.3528 44.9072 13.6742 44.8616C12.1652 44.822 11.0824 45.626 10.8136 46.9856C10.4841 48.6524 11.1151 49.6664 12.9512 50.3552C12.5963 50.6264 12.2608 50.8808 11.9254 51.1352ZM91.2955 47.4056C91.7339 48.1112 92.1494 48.7676 92.5514 49.4324C93.0201 50.2076 93.4125 50.3432 94.2979 50.0528C93.7044 49.226 93.1001 48.3836 92.4764 47.5148C92.7258 47.3456 92.8966 47.246 93.048 47.1224C93.4973 46.7552 93.7601 46.2992 93.5918 45.7064C93.4283 45.1316 92.9681 44.9588 92.4231 44.9576C91.396 44.9552 90.3702 44.9636 89.3432 44.9756C89.3057 44.9756 89.2693 45.0488 89.1773 45.1448C90.0614 45.23 89.8834 45.8696 89.8931 46.388C89.9076 47.186 89.9027 47.9864 89.8676 48.7832C89.8458 49.274 90.0469 49.904 89.2548 50.0528C90.0335 50.0528 90.8111 50.0528 91.5898 50.0528C91.6383 49.9988 91.6867 49.9448 91.7339 49.892C90.8898 49.9388 91.0121 49.424 91.0061 48.9896C90.9988 48.5108 90.9988 48.0308 90.9976 47.552C90.9964 46.82 90.9976 46.088 90.9976 45.374C91.9556 45.2372 92.4146 45.4724 92.4982 46.0736C92.6011 46.826 92.1942 47.2892 91.2955 47.4056ZM62.6128 46.4612C62.6576 46.274 62.6879 46.088 62.7472 45.9092C62.9301 45.3584 62.6891 45.0464 62.155 45.014C61.3181 44.9636 60.4594 44.8664 59.6431 44.996C58.3908 45.1952 57.6266 46.1888 57.5939 47.3924C57.5552 48.8072 58.2382 49.7816 59.5123 50.1656C60.5902 50.4908 61.6281 50.2976 62.6491 49.9472C62.7678 49.9064 62.8732 49.6976 62.8998 49.5512C62.9894 49.076 63.0391 48.5948 63.0984 48.1592C62.4711 48.1592 61.7335 48.1592 60.9959 48.1592C61.1267 48.3344 61.2672 48.3944 61.4126 48.4028C61.8304 48.4292 61.8256 48.7304 61.8074 49.0088C61.7892 49.2992 61.9394 49.6592 61.4671 49.79C60.3916 50.0876 59.304 49.6352 58.971 48.5792C58.7869 47.996 58.7663 47.3132 58.8632 46.7048C58.9976 45.8612 59.7219 45.3524 60.5902 45.2924C61.6512 45.2204 61.9866 45.4232 62.4481 46.406C62.4565 46.4312 62.5159 46.4324 62.6128 46.4612ZM68.5 44.9672C68.7676 45.2576 69.1504 45.4796 69.1649 45.722C69.2206 46.676 69.2 47.6396 69.131 48.5936C69.0765 49.3556 68.5981 49.6724 67.7334 49.6472C66.8783 49.622 66.4338 49.2584 66.4011 48.5012C66.3709 47.7824 66.3793 47.0624 66.3866 46.3436C66.3914 45.8336 66.2473 45.242 66.9958 45.0728C67.0055 45.0704 66.9897 44.9624 66.9885 44.9324C66.1965 44.9324 65.4153 44.9324 64.6341 44.9324C65.5303 45.278 65.2203 46.016 65.2457 46.61C65.276 47.288 65.2469 47.9684 65.2591 48.6476C65.2712 49.3076 65.5667 49.8284 66.2001 50.0492C66.6482 50.2064 67.1435 50.3 67.6183 50.3036C68.9505 50.3132 69.6602 49.586 69.6881 48.2612C69.6978 47.8016 69.659 47.3384 69.7063 46.8836C69.7753 46.2128 69.4628 45.4196 70.2694 44.882C69.6905 44.9084 69.1128 44.9372 68.5 44.9672ZM17.9337 44.924C17.8961 44.9804 17.8574 45.0368 17.8198 45.0944C18.693 45.1772 18.5719 45.7664 18.5756 46.2884C18.5816 47.108 18.5731 47.9288 18.584 48.7484C18.5925 49.4024 18.9328 49.8644 19.5408 50.0672C19.9744 50.2112 20.4467 50.3 20.9033 50.3072C22.181 50.3252 22.8908 49.6532 22.9731 48.3908C23.0143 47.7524 22.9961 47.1104 23.0361 46.4732C23.07 45.9296 22.8181 45.2696 23.6998 45.0224C23.6574 44.972 23.615 44.9228 23.5714 44.8724C22.9901 44.9096 22.4087 44.9456 21.7341 44.9888C22.4802 45.548 22.4814 45.548 22.4802 46.5284C22.4802 47.1488 22.4911 47.7692 22.4705 48.3884C22.4414 49.25 22.0079 49.6448 21.1237 49.6496C20.1597 49.6556 19.7019 49.2536 19.6704 48.3584C19.6547 47.8988 19.6268 47.4344 19.6728 46.9796C19.7419 46.2788 19.3119 45.4232 20.2578 44.9276C19.4827 44.924 18.7076 44.924 17.9337 44.924ZM26.0384 50.126C25.1798 49.8872 25.4886 49.3808 25.6836 48.9032C25.9173 48.3308 26.4175 48.6152 26.7881 48.602C27.8745 48.5612 27.9811 48.6824 28.101 49.7696C27.9132 49.8716 27.7279 49.9724 27.4118 50.1428C28.388 50.1428 29.1716 50.1428 29.954 50.1428C29.1716 49.6856 29.1013 48.8528 28.784 48.1832C28.3226 47.21 27.9375 46.2032 27.4918 45.2216C27.4264 45.0776 27.2217 44.93 27.0667 44.9132C26.9589 44.9012 26.7821 45.0884 26.713 45.224C25.8895 46.8512 25.64 48.7508 24.3526 50.1248C24.8988 50.126 25.468 50.126 26.0384 50.126ZM87.7082 50.168C87.7373 50.1212 87.7676 50.0756 87.7966 50.0288C86.927 49.7552 86.8822 48.9464 86.5867 48.314C86.1217 47.3204 85.7196 46.2968 85.2642 45.2972C85.1879 45.1304 84.9759 44.918 84.8294 44.9192C84.6865 44.9216 84.4867 45.146 84.414 45.3152C83.9804 46.3244 83.5953 47.3528 83.1569 48.3596C82.8844 48.986 82.7984 49.7408 81.8985 50.0924C82.6252 50.0924 83.1811 50.0924 83.737 50.0924C83.7358 50.054 83.7346 50.0144 83.7346 49.976C83.5602 49.9016 83.3858 49.8284 83.221 49.7588C83.3785 48.6632 83.4439 48.59 84.2251 48.5864C85.6869 48.5804 85.6869 48.5804 85.8613 49.7576C85.6796 49.8644 85.4979 49.9724 85.3163 50.0792C85.3381 50.1092 85.3587 50.1392 85.3805 50.168C86.158 50.168 86.9331 50.168 87.7082 50.168ZM99.0745 46.2752C99.3809 45.7112 99.3579 45.188 99.0079 45.0728C98.1976 44.8076 97.3814 44.7812 96.5941 45.1532C96.0625 45.404 95.7488 46.0304 95.8118 46.658C95.8735 47.2736 96.1715 47.7056 96.8073 47.8604C97.2372 47.9648 97.6757 48.0464 98.0923 48.1868C98.6785 48.3848 98.8638 49.0244 98.4919 49.4996C98.1153 49.9808 97.5776 49.9976 97.058 49.8752C96.6002 49.7672 96.1799 49.544 96.2005 48.9512C96.2029 48.8624 96.1182 48.7712 96.0746 48.6812C96.0261 48.6848 95.9789 48.6884 95.9304 48.692C95.8881 49.1204 95.8469 49.5476 95.8021 49.9976C96.9127 50.4632 97.976 50.5784 98.9897 49.8644C99.6013 49.4348 99.7418 48.8156 99.6062 48.11C99.4778 47.4452 98.9958 47.222 98.4011 47.1212C98.045 47.0612 97.6902 46.9856 97.3353 46.9196C96.8763 46.8332 96.622 46.4948 96.7334 46.1084C96.8218 45.8024 97.1331 45.4328 97.4274 45.3344C98.194 45.0764 98.6797 45.4028 98.9352 46.184C98.9485 46.2248 99.026 46.2452 99.0745 46.2752ZM46.327 45.0092C44.6544 45.0092 43.0582 45.0092 41.428 45.0092C41.4583 45.416 41.4849 45.776 41.5116 46.1372C41.5697 46.1468 41.6279 46.1564 41.686 46.166C41.7587 45.9464 41.8301 45.7268 41.9197 45.4544C42.3497 45.4544 42.7966 45.4544 43.3052 45.4544C43.3052 46.5584 43.3113 47.612 43.3028 48.6668C43.298 49.2284 43.5123 49.9076 42.6258 50.0996C43.4445 50.0996 44.2632 50.0996 45.0819 50.0996C45.1098 50.0492 45.1389 49.9988 45.1667 49.9484C44.4461 49.9364 44.4352 49.4924 44.4437 49.0076C44.4582 48.17 44.4461 47.3312 44.4461 46.4924C44.4461 46.1456 44.4461 45.7976 44.4461 45.4628C45.375 45.3932 45.375 45.3932 46.2688 46.22C46.2882 45.7928 46.3064 45.4316 46.327 45.0092ZM52.9493 45.0536C52.8985 45.0056 52.8476 44.9564 52.7967 44.9084C51.645 45.2504 51.7285 46.6748 50.8626 47.27C50.5138 46.664 50.1844 46.0484 49.8138 45.458C49.3705 44.7512 48.5796 44.6876 47.939 45.2768C48.1448 45.4148 48.4113 45.5096 48.5445 45.698C49.0386 46.4012 49.5873 47.0924 49.9191 47.8712C50.1286 48.3644 50.0293 49.0076 49.976 49.574C49.9627 49.718 49.5958 49.8284 49.3959 49.9616C49.3778 49.9736 49.3935 50.036 49.3935 50.0912C50.2086 50.0912 51.0237 50.0912 51.8872 50.0912C51.6026 49.856 51.2283 49.6964 51.2114 49.5068C51.1387 48.7028 51.0188 47.8772 51.5565 47.1392C52.0446 46.4612 52.4867 45.7496 52.9493 45.0536ZM77.9394 45.4472C77.9394 46.622 77.9261 47.7752 77.9454 48.9272C77.9539 49.4552 77.937 49.9268 77.26 50.096C78.0799 50.096 78.8998 50.096 79.7246 50.096C79.4775 49.856 79.1287 49.6748 79.1214 49.4816C79.073 48.1496 79.096 46.814 79.096 45.4328C79.5114 45.4328 79.9062 45.3416 80.2187 45.4616C80.4706 45.5588 80.6208 45.9116 80.8884 46.238C80.8884 45.7688 80.8884 45.3932 80.8884 45.0116C79.2789 45.0116 77.6814 45.0116 76.0501 45.0116C76.0864 45.4196 76.1179 45.7796 76.1494 46.1396C76.1942 46.1744 76.2378 46.2104 76.2826 46.2452C76.4534 45.14 77.1946 45.4112 77.9394 45.4472ZM33.2082 49.7444C33.2082 48.5156 33.2046 47.4008 33.2106 46.2848C33.2131 45.8132 33.0992 45.2696 33.8029 45.1484C33.8089 45.1472 33.8041 45.0752 33.8041 45.0296C33.0072 45.0296 32.2187 45.0296 31.4315 45.0296C31.3879 45.0776 31.3431 45.1256 31.2995 45.1724C32.2357 45.2408 32.0625 45.8648 32.0746 46.382C32.0891 47.0408 32.0988 47.7008 32.0686 48.3584C32.0395 48.9812 32.2466 49.658 31.5986 50.2232C32.8255 50.2232 33.93 50.234 35.0346 50.2112C35.1944 50.2076 35.4585 50.0696 35.4875 49.9496C35.5735 49.5956 35.5662 49.2188 35.6002 48.7832C35.0406 48.8984 35.3591 49.7528 34.6785 49.6772C34.2292 49.628 33.7653 49.7144 33.2082 49.7444ZM37.395 44.9804C37.3623 45.032 37.3284 45.0836 37.2957 45.1352C38.112 45.1952 37.9945 45.7448 37.9957 46.2284C37.9969 47.108 37.9848 47.9888 37.9909 48.8684C37.9945 49.3424 38.0418 49.8248 37.4011 49.9508C37.3962 49.952 37.4047 50.0228 37.4071 50.0672C38.1847 50.0672 38.961 50.0672 39.7167 50.0672C39.5048 49.8524 39.1669 49.67 39.1608 49.4768C39.1148 48.1028 39.1366 46.7264 39.1366 45.3932C39.4067 45.2744 39.5992 45.1904 39.7906 45.1064C39.7724 45.0644 39.7555 45.0224 39.7373 44.9804C38.9561 44.9804 38.175 44.9804 37.395 44.9804ZM71.9056 49.9112C71.9517 49.9592 71.9977 50.006 72.0437 50.054C72.8224 50.054 73.6024 50.054 74.3388 50.054C74.1341 49.8428 73.7962 49.6568 73.7901 49.46C73.7429 48.0908 73.7659 46.7192 73.7659 45.3872C74.0469 45.2684 74.2382 45.188 74.4284 45.1076C74.4114 45.0668 74.3933 45.026 74.3763 44.9852C73.5915 44.9852 72.8055 44.9852 72.0207 44.9852C72.7982 45.2456 72.6299 45.8576 72.6323 46.3844C72.6359 47.2016 72.6323 48.0188 72.625 48.8372C72.6202 49.3136 72.7619 49.8716 71.9056 49.9112ZM102.543 35.252C101.815 35.2508 101.278 35.8088 101.287 36.5576C101.297 37.2848 101.822 37.8224 102.525 37.8224C103.19 37.8224 103.788 37.2368 103.809 36.5648C103.831 35.8556 103.249 35.2532 102.543 35.252Z" fill="white"/>
<path d="M38.07 11.3756C38.07 12.3932 38.07 13.37 38.07 14.348C38.0712 17.8088 38.0676 21.2684 38.0785 24.7292C38.0821 25.7744 38.5424 26.5928 39.4846 27.0752C40.4244 27.5564 41.3667 27.4748 42.2253 26.858C42.9423 26.342 43.2851 25.6052 43.2875 24.7376C43.2984 21.6368 43.2996 18.5372 43.2887 15.4364C43.2851 14.4692 42.757 14.2028 41.6707 14.5784C41.6028 12.818 42.9762 11.2988 44.7759 11.1428C46.5708 10.9868 48.3197 12.302 48.4819 14.0372C48.5909 15.2072 48.5413 16.394 48.5425 17.5724C48.5449 19.8128 48.5316 22.0532 48.5255 24.2924C48.5243 24.9464 48.6382 25.5632 49.0972 26.0768C49.6882 26.738 50.5869 27.0164 51.3959 26.7404C52.3078 26.4284 52.8977 25.826 53.0018 24.8396C53.0297 24.5816 53.0248 24.32 53.0248 24.0608C53.026 20.18 53.026 16.3004 53.026 12.4196C53.026 12.182 53.026 11.9444 53.026 11.6552C54.7882 11.6552 56.5068 11.6552 58.2956 11.6552C58.2956 11.8964 58.2956 12.1304 58.2956 12.3644C58.2956 16.4048 58.2907 20.4452 58.2992 24.4856C58.3016 25.5548 58.9459 26.444 59.9197 26.792C60.8547 27.1256 61.9422 26.84 62.6156 26.078C63.0661 25.5692 63.2103 24.9668 63.2066 24.302C63.1957 22.2824 63.203 20.2616 63.203 18.242C63.203 13.2812 63.203 8.32156 63.203 3.36076C63.203 2.04436 62.8445 1.63876 61.5099 1.47676C61.5099 1.09516 61.5099 0.707558 61.5099 0.309158C63.8158 0.309158 66.1048 0.309158 68.4616 0.309158C68.4616 0.605558 68.4616 0.839558 68.4616 1.07356C68.4616 9.17476 68.4604 17.2748 68.4629 25.376C68.4629 26.4632 68.9582 27.2144 69.8241 27.47C71.1212 27.8528 72.3324 27.0632 72.3929 25.7228C72.4523 24.4256 72.4099 23.1236 72.422 21.824C72.4377 20.0576 72.6 18.3116 73.2346 16.64C74.0194 14.5712 75.2318 12.8348 77.304 11.8628C80.1634 10.5224 82.7976 11.0636 85.2113 12.9596C86.0797 13.6424 86.8814 14.4116 87.7704 15.0644C88.7732 15.8012 89.9468 15.716 90.8793 14.894C91.2366 14.5784 91.5151 14.1752 91.8385 13.8212C92.1752 13.4528 92.478 13.0376 92.8728 12.7424C94.1735 11.7692 95.8388 11.8724 97.0197 12.9728C97.2425 13.1816 97.3866 13.238 97.6858 13.0916C100.218 11.8496 103.056 12.3716 105.024 14.45C104.254 15.7124 103.476 16.9892 102.686 18.284C102.324 18.0716 101.996 17.8496 101.642 17.6768C99.7398 16.7468 97.4774 18.02 97.4447 20.1188C97.3902 23.618 97.4072 27.1196 97.4593 30.6188C97.4823 32.198 98.0866 33.578 99.3401 34.6244C100.182 35.3276 100.182 35.3276 99.672 36.4136C96.4456 34.9604 93.0375 34.16 89.4793 33.7772C89.4793 33.5072 89.4756 33.2912 89.4805 33.074C89.4841 32.9384 89.5023 32.8028 89.5156 32.6492C89.6391 32.6324 89.736 32.6156 89.8329 32.6072C91.411 32.4788 92.1243 31.7468 92.1365 30.182C92.1582 27.3416 92.1704 24.5012 92.1595 21.662C92.1534 20.084 90.7509 19.184 89.4454 19.8908C88.9137 20.1788 88.5879 20.6312 88.554 21.2324C88.5019 22.1504 88.5055 23.0708 88.4583 23.9888C88.3651 25.8056 87.9702 27.554 87.0958 29.1644C86.0615 31.0688 84.5924 32.504 82.427 33.0716C79.8618 33.7436 77.5571 33.2264 75.5733 31.4444C75.4534 31.3376 75.3408 31.2224 75.2257 31.1096C75.1264 31.0124 75.0295 30.9116 74.9181 30.7976C71.4434 33.2636 68.1419 32.9792 64.9591 30.1652C63.0298 31.784 60.8086 32.2004 58.4397 31.5104C58.2265 32.7416 58.1224 33.944 57.7978 35.0864C57.0869 37.5932 55.7813 39.7028 53.3094 40.8944C50.6377 42.182 47.398 41.7008 45.459 39.7292C45.2386 39.506 45.0545 39.2468 44.8147 38.9564C45.4227 39.062 45.9435 39.2048 46.4715 39.236C48.5364 39.362 50.0709 38.378 51.2941 36.8432C52.584 35.2244 53.1011 33.3572 53.0151 31.2176C51.7132 31.5548 50.4597 31.8476 49.1347 31.6472C47.8074 31.4468 46.7065 30.8324 45.6237 30.0368C44.3448 31.2848 42.8442 32.0768 41.0397 32.2304C39.2387 32.3828 37.605 31.9208 36.062 30.8792C34.7843 32.2652 33.1917 33.1004 31.3132 33.3656C29.4239 33.6308 27.6702 33.212 26.0158 32.2208C25.1426 33.2756 24.1011 34.1204 22.7931 34.4828C21.5771 34.82 20.3151 35.0144 19.0628 35.198C15.7577 35.6816 12.6621 36.6488 10.0522 38.8196C10.0243 38.8424 9.97709 38.8424 9.91048 38.8604C9.65856 38.5664 9.39939 38.264 9.11841 37.9376C9.42603 37.6676 9.71428 37.4216 9.99404 37.166C11.9875 35.348 12.8644 33.0476 12.8729 30.4124C12.8934 23.612 12.8825 16.8116 12.8825 10.0112C12.8825 9.89356 12.8607 9.77716 12.8438 9.59716C12.6391 9.58756 12.4465 9.56596 12.254 9.57196C10.4991 9.62716 8.74418 9.68716 6.98928 9.74356C5.79996 9.78196 5.1278 10.2884 4.99579 11.2532C4.84803 12.3296 5.38213 13.0604 6.56054 13.3928C6.63684 13.4144 6.71435 13.4276 6.78339 13.4864C4.82744 13.9748 2.98171 13.7792 1.4218 12.4124C-0.0618136 11.1116 -0.31978 9.40156 0.254286 7.63276C0.881642 5.69956 2.43065 4.74316 4.40355 4.54876C5.78543 4.41196 7.18548 4.45756 8.57825 4.42396C15.6499 4.25356 22.6598 3.51556 29.6044 2.17516C30.549 1.99276 31.4913 1.80076 32.4371 1.61356C32.7956 3.90436 31.6051 6.52276 29.0339 7.36756C27.4026 7.90276 25.6731 8.17276 23.9691 8.44756C22.1996 8.73316 20.4108 8.90236 18.6256 9.07516C18.0673 9.12916 18.1121 9.45076 18.1121 9.81916C18.1097 15.2396 18.1049 20.66 18.1012 26.0804C18.1012 26.72 18.0879 27.3608 18.1024 28.0004C18.1339 29.3948 19.075 30.3392 20.4096 30.3356C21.6377 30.3332 22.5666 29.3528 22.5835 27.9956C22.6041 26.4152 22.5751 24.8348 22.5993 23.2556C22.6247 21.548 22.8815 19.8716 23.4531 18.254C24.7926 14.4608 28.1098 12.0848 32.1671 11.9672C33.6761 11.9228 35.1852 11.8328 36.6906 11.7188C37.1399 11.6864 37.5783 11.5028 38.07 11.3756Z" fill="black"/>
<path d="M77.5966 22.1792C77.6293 22.1828 77.6608 22.1852 77.6935 22.1888C77.6935 22.6688 77.6669 23.15 77.6984 23.6264C77.7783 24.8252 77.8873 26.024 78.5898 27.0632C79.5344 28.46 81.1985 28.5416 82.2219 27.2036C82.5404 26.7872 82.779 26.2652 82.9037 25.7564C83.4088 23.6912 83.3785 21.59 83.0563 19.5092C82.9389 18.746 82.647 17.9432 82.2134 17.3072C81.3196 15.998 79.6349 16.0112 78.7048 17.2964C78.3403 17.7992 78.0714 18.428 77.9539 19.0352C77.7541 20.0672 77.7081 21.1292 77.5966 22.1792Z" fill="black"/>
<path d="M32.8291 16.9244C30.7993 16.8764 29.0904 18.0656 28.3904 19.9039C27.7267 21.6475 27.6226 23.4607 27.8333 25.2763C27.9229 26.0455 28.2039 26.8471 28.6036 27.5143C29.4816 28.9771 31.5369 28.9435 32.3895 27.4663C32.685 26.9551 32.8388 26.2963 32.8473 25.7023C32.8848 23.2051 32.8424 20.7067 32.8291 18.2084C32.8279 17.7932 32.8291 17.378 32.8291 16.9244Z" fill="black"/>
<path d="M11.9256 51.1352C12.2611 50.8808 12.5965 50.6264 12.9526 50.3564C11.1166 49.6664 10.4856 48.6536 10.815 46.9868C11.0839 45.6272 12.1666 44.822 13.6756 44.8628C15.353 44.9072 16.3086 45.6296 16.4951 46.9952C16.7373 48.7748 15.9646 49.7432 13.7386 50.5376C14.6239 50.7464 15.5093 50.9564 16.3982 51.1664C16.0809 51.3692 15.7842 51.788 15.1919 51.6092C14.808 51.4928 14.412 51.416 14.0244 51.3104C13.3559 51.1292 12.691 50.8496 12.0019 51.3272C11.9752 51.2624 11.9498 51.1988 11.9256 51.1352ZM15.4063 47.6408C15.3034 47.18 15.2501 46.676 15.0733 46.22C14.8395 45.62 14.3757 45.2672 13.6744 45.278C12.9562 45.2888 12.4015 45.56 12.1678 46.2476C11.842 47.2088 11.8626 48.1796 12.3361 49.0964C12.6413 49.6868 13.1742 49.9376 13.8379 49.8992C14.4943 49.862 14.9376 49.5116 15.1387 48.908C15.2682 48.5168 15.3131 48.0956 15.4063 47.6408Z" fill="black"/>
<path d="M91.296 47.4055C92.1946 47.2891 92.6028 46.8259 92.4986 46.0735C92.415 45.4723 91.9572 45.2371 90.998 45.3739C90.998 46.0879 90.9968 46.8199 90.998 47.5519C90.9992 48.0307 90.9992 48.5107 91.0065 48.9895C91.0126 49.4239 90.8902 49.9387 91.7344 49.8919C91.6859 49.9459 91.6375 49.9999 91.5903 50.0527C90.8115 50.0527 90.034 50.0527 89.2552 50.0527C90.0473 49.9039 89.8463 49.2739 89.8681 48.7831C89.9032 47.9863 89.908 47.1859 89.8935 46.3879C89.8838 45.8695 90.0618 45.2299 89.1777 45.1447C89.2686 45.0487 89.3061 44.9755 89.3437 44.9755C90.3707 44.9647 91.3965 44.9551 92.4235 44.9575C92.9685 44.9587 93.4287 45.1303 93.5922 45.7063C93.7606 46.2991 93.4978 46.7539 93.0484 47.1223C92.8971 47.2459 92.7263 47.3455 92.4768 47.5147C93.1005 48.3835 93.7049 49.2259 94.2983 50.0527C93.413 50.3431 93.0206 50.2075 92.5519 49.4323C92.1498 48.7675 91.7332 48.1111 91.296 47.4055Z" fill="black"/>
<path d="M62.6123 46.4612C62.5154 46.4324 62.4561 46.4312 62.4464 46.4084C61.985 45.4256 61.6495 45.2228 60.5886 45.2948C59.7214 45.3536 58.996 45.8624 58.8615 46.7072C58.7646 47.3156 58.7852 47.9984 58.9693 48.5816C59.3024 49.6376 60.39 50.09 61.4654 49.7924C61.9365 49.6616 61.7876 49.3028 61.8057 49.0112C61.8227 48.7316 61.8288 48.4316 61.4109 48.4052C61.2668 48.3956 61.1263 48.3368 60.9943 48.1616C61.7319 48.1616 62.4694 48.1616 63.0968 48.1616C63.0374 48.5972 62.9878 49.0784 62.8982 49.5536C62.8703 49.7 62.7649 49.9088 62.6475 49.9496C61.6253 50.3 60.5874 50.4932 59.5107 50.168C58.2378 49.784 57.5547 48.8084 57.5923 47.3948C57.625 46.1912 58.388 45.1976 59.6415 44.9984C60.4578 44.8688 61.3165 44.966 62.1533 45.0164C62.6886 45.0488 62.9296 45.3608 62.7456 45.9116C62.6874 46.088 62.6559 46.274 62.6123 46.4612Z" fill="black"/>
<path d="M68.5 44.9671C69.1116 44.9371 69.6905 44.9095 70.2682 44.8807C69.4628 45.4184 69.7753 46.2116 69.705 46.8824C69.6578 47.3372 69.6966 47.8004 69.6869 48.26C69.6602 49.5848 68.9505 50.312 67.6171 50.3024C67.1423 50.2988 66.647 50.2052 66.1989 50.048C65.5667 49.8272 65.27 49.3064 65.2578 48.6464C65.2457 47.9672 65.2736 47.2868 65.2445 46.6088C65.2179 46.0148 65.5279 45.2768 64.6329 44.9312C65.4141 44.9312 66.1952 44.9312 66.9873 44.9312C66.9897 44.9612 67.0043 45.0703 66.9946 45.0715C66.2461 45.2407 66.3902 45.8324 66.3854 46.3424C66.3793 47.0612 66.3696 47.7824 66.3999 48.5C66.4326 49.2572 66.8771 49.622 67.7321 49.646C68.5969 49.6712 69.0741 49.3544 69.1298 48.5924C69.1988 47.6384 69.2194 46.6748 69.1637 45.7208C69.1504 45.4796 68.7676 45.2575 68.5 44.9671Z" fill="black"/>
<path d="M17.9342 44.9239C18.7093 44.9239 19.4832 44.9239 20.2583 44.9239C19.3136 45.4195 19.7436 46.2763 19.6733 46.9759C19.6285 47.4319 19.6551 47.8951 19.6709 48.3547C19.7024 49.2511 20.1602 49.6519 21.1242 49.6459C22.0083 49.6411 22.4419 49.2463 22.471 48.3847C22.4916 47.7655 22.4795 47.1451 22.4807 46.5247C22.4819 45.5455 22.4807 45.5455 21.7346 44.9851C22.4092 44.9419 22.9905 44.9059 23.5719 44.8687C23.6143 44.9191 23.6567 44.9683 23.7003 45.0187C22.8186 45.2659 23.0705 45.9259 23.0366 46.4695C22.9966 47.1079 23.0148 47.7499 22.9736 48.3871C22.8912 49.6495 22.1815 50.3215 20.9038 50.3035C20.4472 50.2975 19.9749 50.2087 19.5413 50.0635C18.9345 49.8607 18.5942 49.3987 18.5845 48.7447C18.5736 47.9251 18.5809 47.1043 18.576 46.2847C18.5724 45.7627 18.6935 45.1735 17.8203 45.0907C17.8579 45.0379 17.8954 44.9815 17.9342 44.9239Z" fill="black"/>
<path d="M26.0382 50.1259C25.4689 50.1259 24.8997 50.1259 24.3535 50.1259C25.6409 48.7507 25.8904 46.8511 26.714 45.2251C26.783 45.0883 26.9598 44.9023 27.0676 44.9143C27.2226 44.9311 27.4273 45.0787 27.4927 45.2227C27.9372 46.2031 28.3235 47.2111 28.785 48.1843C29.1023 48.8539 29.1725 49.6867 29.9549 50.1439C29.1725 50.1439 28.3889 50.1439 27.4128 50.1439C27.7289 49.9723 27.9142 49.8715 28.1019 49.7707C27.982 48.6835 27.8754 48.5623 26.7891 48.6031C26.4185 48.6175 25.9183 48.3319 25.6845 48.9043C25.4883 49.3807 25.1783 49.8871 26.0382 50.1259ZM26.7673 46.2223C26.4826 46.9303 26.2537 47.5015 26.0067 48.1171C26.5771 48.1171 27.0349 48.1171 27.563 48.1171C27.2941 47.4787 27.0591 46.9183 26.7673 46.2223Z" fill="black"/>
<path d="M87.7086 50.168C86.9335 50.168 86.1584 50.168 85.3833 50.168C85.3615 50.138 85.3409 50.108 85.3191 50.0792C85.5008 49.9724 85.6825 49.8644 85.8653 49.7576C85.6897 48.5816 85.6897 48.5816 84.2279 48.5864C83.4467 48.59 83.3813 48.6632 83.2239 49.7588C83.3886 49.8284 83.563 49.9028 83.7374 49.976C83.7386 50.0144 83.7398 50.054 83.7398 50.0924C83.1839 50.0924 82.6292 50.0924 81.9014 50.0924C82.8012 49.7408 82.8872 48.9848 83.1597 48.3596C83.5981 47.3528 83.9833 46.3244 84.4168 45.3152C84.4895 45.146 84.6881 44.9216 84.8323 44.9192C84.9788 44.9168 85.1907 45.1304 85.267 45.2972C85.7224 46.2968 86.1233 47.3192 86.5896 48.314C86.8863 48.9464 86.9311 49.7552 87.7995 50.0288C87.768 50.0756 87.7389 50.1212 87.7086 50.168ZM84.567 46.394C84.5174 46.3976 84.4677 46.4024 84.4168 46.406C84.1916 46.9652 83.9663 47.5256 83.7277 48.1172C84.2824 48.1172 84.7438 48.1172 85.2804 48.1172C85.02 47.4884 84.7935 46.9412 84.567 46.394Z" fill="black"/>
<path d="M99.0742 46.2751C99.0257 46.2451 98.9482 46.2259 98.9349 46.1851C98.6794 45.4027 98.1937 45.0776 97.4271 45.3356C97.1328 45.4352 96.8215 45.8035 96.7331 46.1095C96.6217 46.4971 96.876 46.8355 97.335 46.9207C97.6911 46.9867 98.0447 47.0623 98.4008 47.1223C98.9967 47.2231 99.4787 47.4464 99.6059 48.1112C99.7415 48.818 99.601 49.4359 98.9894 49.8655C97.9745 50.5783 96.9123 50.4643 95.8018 49.9987C95.8454 49.5487 95.8877 49.1215 95.9301 48.6931C95.9786 48.6895 96.0258 48.6859 96.0743 48.6823C96.1179 48.7723 96.2039 48.8635 96.2002 48.9523C96.1796 49.5451 96.5999 49.7683 97.0577 49.8763C97.5772 49.9987 98.1138 49.9819 98.4916 49.5007C98.8635 49.0255 98.6794 48.3859 98.092 48.1879C97.6741 48.0475 97.2357 47.9659 96.807 47.8615C96.1712 47.7067 95.8732 47.2748 95.8114 46.6592C95.7473 46.0316 96.0609 45.4052 96.5938 45.1544C97.3811 44.7824 98.1973 44.8088 99.0076 45.074C99.3576 45.1868 99.3794 45.7099 99.0742 46.2751Z" fill="black"/>
<path d="M46.327 45.0092C46.3064 45.4316 46.2894 45.7928 46.2676 46.2212C45.3738 45.3944 45.3738 45.3944 44.4449 45.464C44.4449 45.7988 44.4449 46.1456 44.4449 46.4936C44.4461 47.3324 44.457 48.17 44.4425 49.0088C44.434 49.4936 44.4449 49.9376 45.1655 49.9496C45.1377 50 45.1086 50.0504 45.0807 50.1008C44.262 50.1008 43.4433 50.1008 42.6246 50.1008C43.5099 49.9088 43.2968 49.2296 43.3016 48.668C43.3101 47.6144 43.304 46.5596 43.304 45.4556C42.7954 45.4556 42.3485 45.4556 41.9185 45.4556C41.8289 45.728 41.7562 45.9476 41.6848 46.1672C41.6267 46.1576 41.5685 46.148 41.5104 46.1384C41.4837 45.7772 41.4571 45.416 41.4268 45.0104C43.0582 45.0092 44.6544 45.0092 46.327 45.0092Z" fill="black"/>
<path d="M52.9495 45.0535C52.4857 45.7495 52.0448 46.4611 51.5531 47.1367C51.0154 47.8759 51.1353 48.7015 51.208 49.5043C51.2249 49.6951 51.5992 49.8535 51.8838 50.0887C51.0202 50.0887 50.2064 50.0887 49.3901 50.0887C49.3901 50.0347 49.3743 49.9711 49.3925 49.9591C49.5923 49.8259 49.9593 49.7167 49.9726 49.5715C50.0259 49.0039 50.1252 48.3619 49.9157 47.8687C49.5851 47.0899 49.0352 46.3987 48.5411 45.6955C48.4091 45.5071 48.1414 45.4123 47.9355 45.2755C48.5774 44.6863 49.3683 44.7499 49.8116 45.4567C50.1822 46.0471 50.5128 46.6639 50.8604 47.2687C51.7275 46.6747 51.644 45.2503 52.7945 44.9071C52.8478 44.9575 52.8987 45.0055 52.9495 45.0535Z" fill="black"/>
<path d="M77.9391 45.4472C77.1943 45.4112 76.4531 45.1412 76.2823 46.2464C76.2375 46.2116 76.1939 46.1756 76.1491 46.1408C76.1176 45.7808 76.0861 45.4208 76.0498 45.0128C77.6812 45.0128 79.2798 45.0128 80.8882 45.0128C80.8882 45.3944 80.8882 45.77 80.8882 46.2392C80.6205 45.9128 80.4704 45.5588 80.2184 45.4628C79.906 45.3428 79.5099 45.434 79.0957 45.434C79.0957 46.8152 79.0727 48.1496 79.1212 49.4828C79.1284 49.676 79.4772 49.856 79.7243 50.0972C78.8995 50.0972 78.0796 50.0972 77.2597 50.0972C77.9367 49.928 77.9549 49.4576 77.9452 48.9284C77.9258 47.7752 77.9391 46.622 77.9391 45.4472Z" fill="black"/>
<path d="M33.208 49.7444C33.7651 49.7132 34.229 49.628 34.6759 49.6772C35.3565 49.7528 35.038 48.8984 35.5975 48.7832C35.5636 49.2188 35.5709 49.5944 35.4849 49.9496C35.4558 50.0696 35.1918 50.2076 35.0319 50.2112C33.9274 50.234 32.8229 50.2232 31.596 50.2232C32.244 49.658 32.0369 48.9824 32.0659 48.3584C32.0962 47.7008 32.0865 47.0408 32.072 46.382C32.0611 45.8648 32.2331 45.242 31.2969 45.1724C31.3405 45.1244 31.3853 45.0764 31.4289 45.0296C32.2173 45.0296 33.0058 45.0296 33.8015 45.0296C33.8015 45.0752 33.8075 45.1472 33.8002 45.1484C33.0966 45.2696 33.2104 45.812 33.208 46.2848C33.2044 47.4008 33.208 48.5168 33.208 49.7444Z" fill="black"/>
<path d="M37.3952 44.9804C38.1764 44.9804 38.9563 44.9804 39.7375 44.9804C39.7557 45.0224 39.7726 45.0644 39.7908 45.1064C39.5982 45.1904 39.4069 45.2744 39.1368 45.3932C39.1368 46.7264 39.115 48.1028 39.161 49.4768C39.1671 49.67 39.5062 49.8524 39.7169 50.0672C38.9612 50.0672 38.1861 50.0672 37.4073 50.0672C37.4049 50.0216 37.3964 49.9508 37.4013 49.9508C38.0419 49.826 37.9935 49.3424 37.9911 48.8684C37.985 47.9888 37.9959 47.108 37.9959 46.2284C37.9959 45.7448 38.1122 45.1952 37.2959 45.1352C37.3286 45.0836 37.3613 45.032 37.3952 44.9804Z" fill="black"/>
<path d="M71.9053 49.9111C72.7615 49.8715 72.6198 49.3135 72.6235 48.8383C72.6307 48.0211 72.6356 47.2039 72.6307 46.3855C72.6283 45.8587 72.7967 45.2467 72.0191 44.9863C72.8039 44.9863 73.5899 44.9863 74.3747 44.9863C74.3917 45.0271 74.4098 45.0679 74.4268 45.1087C74.2367 45.1891 74.0453 45.2695 73.7643 45.3883C73.7643 46.7203 73.7425 48.0919 73.7886 49.4611C73.7958 49.6579 74.1337 49.8439 74.3372 50.0551C73.5996 50.0551 72.8209 50.0551 72.0421 50.0551C71.9973 50.0071 71.9513 49.9591 71.9053 49.9111Z" fill="black"/>
<path d="M77.5966 22.1792C77.7081 21.1292 77.7541 20.0672 77.9551 19.0352C78.0726 18.4268 78.3427 17.7992 78.706 17.2964C79.6362 16.0112 81.3208 15.9992 82.2146 17.3072C82.6494 17.9432 82.9401 18.746 83.0575 19.5092C83.3785 21.59 83.41 23.6912 82.9049 25.7564C82.7802 26.2664 82.5416 26.7872 82.2231 27.2036C81.1997 28.5416 79.5368 28.46 78.591 27.0632C77.8885 26.0252 77.7795 24.8252 77.6996 23.6264C77.6681 23.1488 77.6948 22.6676 77.6948 22.1888C77.6608 22.1852 77.6281 22.1828 77.5966 22.1792Z" fill="white"/>
<path d="M32.8291 16.9244C32.8291 17.378 32.8279 17.7932 32.8291 18.2084C32.8412 20.7068 32.8836 23.2052 32.8473 25.7024C32.8388 26.2964 32.685 26.9552 32.3895 27.4664C31.5369 28.9436 29.4816 28.976 28.6036 27.5144C28.2039 26.8484 27.9229 26.0456 27.8333 25.2764C27.6226 23.4608 27.7267 21.6476 28.3904 19.904C29.0916 18.0656 30.7993 16.8764 32.8291 16.9244Z" fill="white"/>
<path d="M15.4063 47.6407C15.313 48.0955 15.2682 48.5167 15.1374 48.9091C14.9364 49.5127 14.4931 49.8619 13.8367 49.9003C13.173 49.9387 12.6401 49.6879 12.3349 49.0975C11.8614 48.1807 11.8396 47.2099 12.1666 46.2487C12.4003 45.5599 12.955 45.2887 13.6732 45.2791C14.3732 45.2683 14.8371 45.6211 15.072 46.2211C15.2501 46.6759 15.3034 47.1799 15.4063 47.6407Z" fill="white"/>
<path d="M26.7676 46.2224C27.0595 46.9184 27.2945 47.4788 27.5621 48.1172C27.0341 48.1172 26.5763 48.1172 26.0059 48.1172C26.2541 47.5016 26.483 46.9316 26.7676 46.2224Z" fill="white"/>
<path d="M84.5668 46.3939C84.7933 46.9411 85.0198 47.4883 85.2802 48.1171C84.7437 48.1171 84.2822 48.1171 83.7275 48.1171C83.9661 47.5255 84.1914 46.9651 84.4167 46.4059C84.4663 46.4023 84.516 46.3975 84.5668 46.3939Z" fill="white"/>
<path d="M102.505 35.4104C103.122 35.3936 103.621 35.8688 103.633 36.4856C103.647 37.1444 103.168 37.6543 102.535 37.6555C101.935 37.6567 101.442 37.1636 101.426 36.548C101.412 35.948 101.907 35.426 102.505 35.4104ZM102.933 37.1359C102.978 37.1119 103.022 37.0892 103.067 37.0652C102.785 36.6752 102.504 36.2864 102.228 35.906C102.228 36.296 102.228 36.704 102.228 37.1131C102.255 37.1119 102.281 37.1096 102.307 37.1084C102.354 36.9356 102.401 36.7628 102.475 36.4928C102.67 36.7652 102.801 36.9512 102.933 37.1359Z" fill="white"/>
</g>
<defs>
<clipPath id="clip0_2_208">
<rect width="105" height="52" fill="white"/>
</clipPath>
</defs>
</svg>
